HIERARCHY
ROOT root
{
	OFFSET 0.000000 0.000000 0.000000
	CHANNELS 6 Xposition Yposition Zposition Zrotation Yrotation Xrotation
	JOINT lhip
	{
		OFFSET 0.058581 -0.082280 -0.017664
		CHANNELS 3 Zrotation Yrotation Xrotation
		JOINT lknee
		{
			OFFSET 0.043451 -0.386469 0.008037
			CHANNELS 3 Zrotation Yrotation Xrotation
			JOINT lankle
			{
				OFFSET -0.014790 -0.426874 -0.037428
				CHANNELS 3 Zrotation Yrotation Xrotation
				JOINT ltoe
				{
					OFFSET 0.041054 -0.060286 0.122042
					CHANNELS 3 Zrotation Yrotation Xrotation
					End Site
					{
						OFFSET 0.000000 0.000000 0.000000
					}
				}
			}
		}
	}
	JOINT rhip
	{
		OFFSET -0.060310 -0.090513 -0.013543
		CHANNELS 3 Zrotation Yrotation Xrotation
		JOINT rknee
		{
			OFFSET -0.043257 -0.383688 -0.004843
			CHANNELS 3 Zrotation Yrotation Xrotation
			JOINT rankle
			{
				OFFSET 0.019056 -0.420046 -0.034562
				CHANNELS 3 Zrotation Yrotation Xrotation
				JOINT rtoe
				{
					OFFSET -0.034840 -0.062106 0.130323
					CHANNELS 3 Zrotation Yrotation Xrotation
					End Site
					{
						OFFSET 0.000000 0.000000 0.000000
					}
				}
			}
		}
	}
	JOINT lowerback
	{
		OFFSET 0.004439 0.124404 -0.038385
		CHANNELS 3 Zrotation Yrotation Xrotation
		JOINT upperback
		{
			OFFSET 0.004488 0.137956 0.026820
			CHANNELS 3 Zrotation Yrotation Xrotation
			JOINT chest
			{
				OFFSET -0.002265 0.056032 0.002855
				CHANNELS 3 Zrotation Yrotation Xrotation
				JOINT lowerneck
				{
					OFFSET -0.013390 0.211636 -0.033468
					CHANNELS 3 Zrotation Yrotation Xrotation
					JOINT upperneck
					{
						OFFSET 0.010113 0.088937 0.050410
						CHANNELS 3 Zrotation Yrotation Xrotation
						End Site
						{
							OFFSET 0.000000 0.000000 0.000000
						}
					}
				}
				JOINT lclavicle
				{
					OFFSET 0.071702 0.114000 -0.018898
					CHANNELS 3 Zrotation Yrotation Xrotation
					JOINT lshoulder
					{
						OFFSET 0.122921 0.045205 -0.019046
						CHANNELS 3 Zrotation Yrotation Xrotation
						JOINT lelbow
						{
							OFFSET 0.255332 -0.015649 -0.022946
							CHANNELS 3 Zrotation Yrotation Xrotation
							JOINT lwrist
							{
								OFFSET 0.265709 0.012698 -0.007375
								CHANNELS 3 Zrotation Yrotation Xrotation
								End Site
								{
									OFFSET 0.000000 0.000000 0.000000
								}
							}
						}
					}
				}
				JOINT rclavicle
				{
					OFFSET -0.082954 0.112472 -0.023707
					CHANNELS 3 Zrotation Yrotation Xrotation
					JOINT rshoulder
					{
						OFFSET -0.113228 0.046853 -0.008472
						CHANNELS 3 Zrotation Yrotation Xrotation
						JOINT relbow
						{
							OFFSET -0.260127 -0.014369 -0.031269
							CHANNELS 3 Zrotation Yrotation Xrotation
							JOINT rwrist
							{
								OFFSET -0.269108 0.006794 -0.006027
								CHANNELS 3 Zrotation Yrotation Xrotation
								End Site
								{
									OFFSET 0.000000 0.000000 0.000000
								}
							}
						}
					}
				}
			}
		}
	}
}
MOTION
Frames: 10
Frame Time: 0.033333
0.450467 0.168772 0.992935 84.891766 2.950664 93.557717 4.920240 3.760626 -0.730638 3.231014 2.805942 -5.895281 1.214186 9.815793 -2.810694 0.000000 -0.000000 0.000000 -1.556416 -0.524720 -5.406887 -0.610049 0.569283 0.628839 6.942102 -1.234307 -2.663583 0.000000 -0.000000 0.000000 -1.195075 2.295905 -1.841555 2.467921 -1.290524 2.925922 -0.225065 4.681458 -8.368184 -4.463391 3.869885 8.506244 1.353070 17.907835 4.671010 -15.209324 -1.396166 -3.101181 -66.282339 -6.835637 32.248804 127.303476 -76.337548 -112.107691 23.774112 8.515839 -32.205677 15.962978 9.404864 0.241999 49.140601 33.626384 28.012879 64.107741 78.110048 74.052696 -20.401669 -0.917681 -19.202550 
0.450432 0.168825 0.992977 85.182706 2.929772 93.703979 4.918965 3.751987 -0.953567 3.197393 2.464815 -5.884610 1.116684 9.911948 -2.778179 0.000000 -0.000000 0.000000 -1.558787 -0.624462 -5.493975 -0.623854 0.515611 0.588050 6.961351 -1.399179 -2.700555 0.000000 -0.000000 0.000000 -1.260704 2.168205 -1.782455 2.597267 -1.473690 2.731490 -0.099958 4.484115 -8.358476 -4.878817 4.060195 8.684858 1.143893 18.389115 4.536114 -15.464975 -1.288226 -2.689802 -66.216047 -6.484117 31.805310 124.796064 -76.905548 -109.851390 24.732281 9.143969 -31.854031 16.264114 8.862424 0.325742 49.994521 32.701584 28.417147 70.050402 76.803533 80.505841 -21.916087 0.305200 -17.826829 
0.450441 0.168748 0.992992 85.276266 2.957468 93.746466 4.983681 3.901229 -0.980143 3.140539 2.024009 -5.967182 0.959887 10.148074 -2.664880 0.000000 -0.000000 0.000000 -1.507599 -0.728842 -5.438515 -0.617101 0.686440 0.416534 7.119753 -1.575021 -2.614726 0.000000 -0.000000 0.000000 -1.218906 1.965568 -1.855628 2.690973 -1.680196 2.652842 0.012923 4.452290 -8.098172 -5.359383 4.125487 8.888235 0.962969 19.032594 4.162265 -15.652214 -1.527349 -2.224729 -66.039006 -6.289229 30.775591 124.775371 -77.871969 -110.155508 25.346847 9.781773 -32.174742 16.789932 8.611227 0.861222 50.265799 32.885894 27.713266 73.912336 74.579294 85.820408 -23.059346 2.597329 -13.253358 
0.450466 0.168712 0.992977 85.238191 2.962864 93.742492 4.991688 3.938572 -0.953868 3.134111 1.964709 -5.998866 0.910334 10.228262 -2.634745 0.000000 -0.000000 0.000000 -1.512478 -0.731244 -5.421710 -0.592108 0.707008 0.382419 7.148721 -1.599664 -2.607538 0.000000 -0.000000 0.000000 -1.203315 1.899452 -1.860204 2.702483 -1.706981 2.620276 0.045383 4.570268 -7.960600 -5.575760 4.073767 8.917934 0.991362 19.226130 3.991822 -15.722262 -1.802003 -2.014389 -65.973830 -6.216864 30.537051 124.223453 -78.042829 -109.962345 26.175761 10.021101 -32.702290 17.057914 8.578894 1.001859 50.327397 32.844213 27.368546 74.862573 73.970023 87.314370 -23.396743 3.542753 -11.829743 
0.450811 0.168924 0.992717 85.005534 3.016615 93.685831 5.017781 4.019175 -0.777017 3.163044 2.119172 -6.104576 0.807906 10.267094 -2.638352 0.000000 -0.000000 0.000000 -1.540830 -0.727874 -5.375513 -0.493641 0.670343 0.354575 7.272882 -1.422200 -2.513298 0.000000 -0.000000 0.000000 -1.176719 1.910378 -1.908850 2.792111 -1.662305 2.555049 0.185851 4.724257 -7.613447 -5.614862 4.292521 8.859191 0.858701 19.302812 3.927117 -15.866603 -2.207420 -1.681474 -66.078205 -5.964287 29.812403 121.705240 -77.968078 -108.863050 25.521033 8.948018 -35.530738 17.623110 8.633892 1.336753 50.118128 32.573389 26.245577 77.084108 74.053342 90.437251 -22.869377 5.524601 -7.746736 
0.450189 0.168904 0.992521 84.624261 3.104307 93.636223 5.122836 4.026720 -0.766434 3.144905 2.499289 -5.975009 0.734185 10.159303 -2.567166 0.000000 -0.000000 0.000000 -1.523955 -0.509484 -5.521013 -0.461777 0.529869 0.490510 7.567236 -1.159215 -2.414211 0.000000 -0.000000 0.000000 -1.118867 1.965775 -1.643103 2.917921 -1.655568 2.320585 0.246292 4.985958 -7.408377 -5.643094 4.599982 8.620676 0.841165 19.023406 3.941818 -15.773639 -2.373438 -1.479586 -66.381599 -5.689107 28.995089 118.575048 -77.934574 -107.265451 24.657732 7.510536 -39.322389 18.165739 8.598998 1.756248 49.652303 32.312023 24.801346 84.334891 74.549876 100.008408 -24.451464 8.574607 -1.263721 
0.450603 0.168875 0.992467 84.700945 3.103997 93.951402 5.152643 3.884942 -1.184088 3.089666 2.671556 -5.783741 0.671736 10.010402 -2.550669 0.000000 -0.000000 0.000000 -1.512437 -0.694596 -5.788796 -0.496172 0.469228 0.392891 7.887788 -1.025544 -2.376805 0.000000 -0.000000 0.000000 -1.179870 2.122239 -1.866034 3.000994 -1.578187 2.018257 0.252401 5.103251 -7.285740 -5.970836 4.131549 8.466002 1.276679 19.115521 4.138002 -15.770404 -2.816703 -0.986597 -66.572783 -5.599758 28.369528 116.074329 -77.920209 -104.757817 25.633492 7.819465 -40.290969 18.469050 7.992009 1.811056 48.638993 32.129314 23.086775 94.792325 73.635300 113.113399 -26.739521 11.885878 3.809325 
0.450670 0.169276 0.992414 84.808342 3.094301 94.043050 5.120395 3.815814 -1.335905 3.096243 2.627332 -5.710353 0.569248 10.032885 -2.581144 0.000000 -0.000000 0.000000 -1.568268 -0.796656 -5.859186 -0.458565 0.381350 0.371775 8.018874 -0.983840 -2.395760 0.000000 -0.000000 0.000000 -1.060349 2.226429 -1.963158 2.971313 -1.567875 2.091993 0.241160 5.030780 -7.300282 -6.261527 3.783858 8.420135 1.441881 19.489321 4.194701 -15.982982 -3.204276 -0.849553 -66.520529 -5.617759 27.834822 112.102632 -77.891936 -101.246523 25.843921 8.287285 -41.075627 18.175147 7.773625 1.659495 47.612826 32.378960 21.882093 106.061592 71.978065 124.292509 -27.617006 13.423193 4.695076 
0.450780 0.169606 0.992295 84.938399 3.016042 94.128359 5.001209 3.622154 -1.411462 3.114686 2.826144 -5.753947 0.544646 9.895031 -2.590645 0.000000 -0.000000 0.000000 -1.688926 -0.736320 -5.942710 -0.477526 0.027813 0.434325 8.000627 -0.775614 -2.512531 0.000000 -0.000000 0.000000 -0.996770 2.178152 -2.002502 2.957602 -1.781258 2.125711 0.269011 4.821523 -7.466173 -6.566028 3.731853 8.261061 1.541687 19.965447 4.464058 -16.068052 -3.288937 -1.126765 -66.477885 -5.083386 27.989339 110.232514 -77.435268 -99.691525 24.672455 8.009325 -41.416249 17.881618 8.445872 1.175735 45.729162 33.279461 21.947144 116.133548 69.675978 132.806321 -26.765659 12.805666 2.324925 
0.450907 0.169747 0.992308 85.009516 2.959952 94.175139 4.931104 3.525032 -1.420072 3.108917 3.056158 -5.801023 0.452090 9.654720 -2.632592 0.000000 -0.000000 0.000000 -1.772015 -0.616493 -5.976341 -0.513746 -0.326864 0.465466 8.065387 -0.529399 -2.595502 0.000000 -0.000000 0.000000 -0.935394 1.987092 -2.126710 2.995376 -2.089804 2.175628 0.278558 4.700176 -7.548286 -6.507577 4.182532 8.287270 1.422683 20.147661 4.639248 -16.040972 -3.260362 -1.511626 -66.289071 -4.582614 27.909563 111.420003 -77.753084 -100.590833 22.954143 6.212709 -41.833065 17.653053 9.422265 1.066814 44.567640 34.313692 22.132194 121.937136 67.856200 138.445738 -26.768566 13.800017 2.282039 
